<mxfile host="app.diagrams.net" modified="2022-04-30T18:22:54.985Z" agent="5.0 (Windows NT 10.0; Win64; x64) AppleWebKit/537.36 (KHTML, like Gecko) Chrome/100.0.4896.127 Safari/537.36" etag="Jmka5cqV1XFR2L_cj8tm" version="17.5.0" type="github">
  <diagram name="Page-1" id="8ce9d11a-91a2-4d17-14d8-a56ed91bf033">
    <mxGraphModel dx="1422" dy="762" grid="1" gridSize="10" guides="1" tooltips="1" connect="1" arrows="1" fold="1" page="1" pageScale="1" pageWidth="1100" pageHeight="850" background="none" math="0" shadow="0">
      <root>
        <mxCell id="0" />
        <mxCell id="1" parent="0" />
        <mxCell id="318fzTL56NjNgk1-DEGz-19" style="edgeStyle=orthogonalEdgeStyle;rounded=0;orthogonalLoop=1;jettySize=auto;html=1;" parent="1" source="x6bshDRYsI94okJ-4vA8-1" target="318fzTL56NjNgk1-DEGz-16" edge="1">
          <mxGeometry relative="1" as="geometry">
            <mxPoint x="370" y="315" as="targetPoint" />
            <Array as="points">
              <mxPoint x="370" y="290" />
              <mxPoint x="370" y="290" />
            </Array>
            <mxPoint x="340" y="305" as="sourcePoint" />
          </mxGeometry>
        </mxCell>
        <mxCell id="aWs6wPL-7yNdKMg-z43p-1" style="edgeStyle=orthogonalEdgeStyle;rounded=0;orthogonalLoop=1;jettySize=auto;html=1;" parent="1" source="318fzTL56NjNgk1-DEGz-3" target="318fzTL56NjNgk1-DEGz-16" edge="1">
          <mxGeometry relative="1" as="geometry">
            <Array as="points">
              <mxPoint x="333" y="190" />
              <mxPoint x="333" y="265" />
            </Array>
          </mxGeometry>
        </mxCell>
        <mxCell id="318fzTL56NjNgk1-DEGz-3" value="Uživatel" style="shape=umlActor;verticalLabelPosition=bottom;verticalAlign=top;html=1;outlineConnect=0;" parent="1" vertex="1">
          <mxGeometry x="260" y="160" width="30" height="60" as="geometry" />
        </mxCell>
        <mxCell id="318fzTL56NjNgk1-DEGz-24" style="edgeStyle=orthogonalEdgeStyle;rounded=0;orthogonalLoop=1;jettySize=auto;html=1;" parent="1" source="318fzTL56NjNgk1-DEGz-14" target="318fzTL56NjNgk1-DEGz-16" edge="1">
          <mxGeometry relative="1" as="geometry">
            <mxPoint x="445" y="225" as="targetPoint" />
          </mxGeometry>
        </mxCell>
        <mxCell id="318fzTL56NjNgk1-DEGz-14" value="Potřeba testování" style="shape=hexagon;perimeter=hexagonPerimeter;whiteSpace=wrap;html=1;rounded=0;shadow=0;labelBackgroundColor=none;strokeWidth=1;fontFamily=Verdana;fontSize=12;align=center;" parent="1" vertex="1">
          <mxGeometry x="370" y="145" width="170" height="60" as="geometry" />
        </mxCell>
        <mxCell id="318fzTL56NjNgk1-DEGz-28" style="edgeStyle=orthogonalEdgeStyle;rounded=0;orthogonalLoop=1;jettySize=auto;html=1;" parent="1" source="318fzTL56NjNgk1-DEGz-16" target="318fzTL56NjNgk1-DEGz-21" edge="1">
          <mxGeometry relative="1" as="geometry">
            <Array as="points">
              <mxPoint x="370" y="310" />
              <mxPoint x="370" y="380" />
            </Array>
          </mxGeometry>
        </mxCell>
        <mxCell id="wex1mb7kt1AqzaQvMvRQ-4" style="edgeStyle=orthogonalEdgeStyle;rounded=0;orthogonalLoop=1;jettySize=auto;html=1;" parent="1" source="x6bshDRYsI94okJ-4vA8-2" target="wex1mb7kt1AqzaQvMvRQ-3" edge="1">
          <mxGeometry relative="1" as="geometry" />
        </mxCell>
        <mxCell id="x6bshDRYsI94okJ-4vA8-3" style="edgeStyle=orthogonalEdgeStyle;rounded=0;orthogonalLoop=1;jettySize=auto;html=1;" parent="1" source="318fzTL56NjNgk1-DEGz-16" target="x6bshDRYsI94okJ-4vA8-2" edge="1">
          <mxGeometry relative="1" as="geometry" />
        </mxCell>
        <mxCell id="318fzTL56NjNgk1-DEGz-16" value="Spuštění programu" style="rounded=1;whiteSpace=wrap;html=1;shadow=0;labelBackgroundColor=none;strokeWidth=1;fontFamily=Verdana;fontSize=12;align=center;" parent="1" vertex="1">
          <mxGeometry x="390" y="245" width="130" height="80" as="geometry" />
        </mxCell>
        <mxCell id="318fzTL56NjNgk1-DEGz-21" value="Logovací soubory zachycující běh programu" style="shape=process;whiteSpace=wrap;html=1;backgroundOutline=1;" parent="1" vertex="1">
          <mxGeometry x="230" y="365" width="120" height="60" as="geometry" />
        </mxCell>
        <mxCell id="wex1mb7kt1AqzaQvMvRQ-3" value="Testování dokončeno" style="shape=hexagon;perimeter=hexagonPerimeter;whiteSpace=wrap;html=1;rounded=0;shadow=0;labelBackgroundColor=none;strokeWidth=1;fontFamily=Verdana;fontSize=12;align=center;" parent="1" vertex="1">
          <mxGeometry x="370" y="410" width="170" height="60" as="geometry" />
        </mxCell>
        <mxCell id="x6bshDRYsI94okJ-4vA8-1" value="Zkompilovaný instrumentovaný program" style="shape=process;whiteSpace=wrap;html=1;backgroundOutline=1;" parent="1" vertex="1">
          <mxGeometry x="230" y="280" width="120" height="60" as="geometry" />
        </mxCell>
        <mxCell id="x6bshDRYsI94okJ-4vA8-4" style="edgeStyle=orthogonalEdgeStyle;rounded=0;orthogonalLoop=1;jettySize=auto;html=1;" parent="1" source="x6bshDRYsI94okJ-4vA8-2" target="318fzTL56NjNgk1-DEGz-14" edge="1">
          <mxGeometry relative="1" as="geometry">
            <Array as="points">
              <mxPoint x="570" y="370" />
              <mxPoint x="570" y="175" />
            </Array>
          </mxGeometry>
        </mxCell>
        <mxCell id="x6bshDRYsI94okJ-4vA8-2" value="XOR" style="ellipse;whiteSpace=wrap;html=1;aspect=fixed;" parent="1" vertex="1">
          <mxGeometry x="435" y="350" width="40" height="40" as="geometry" />
        </mxCell>
      </root>
    </mxGraphModel>
  </diagram>
</mxfile>
